<svg xmlns="http://www.w3.org/2000/svg" xmlns:xlink="http://www.w3.org/1999/xlink" width="1200" zoomAndPan="magnify" viewBox="0 0 900 472.499986" height="630" preserveAspectRatio="xMidYMid meet" version="1.0"><defs><g/></defs><g fill="#000000" fill-opacity="1"><g transform="translate(0.488739, 293.610089)"><g><path d="M 59.40625 -109.671875 C 73.820312 -109.671875 84.875 -106.53125 92.5625 -100.25 C 100.25 -93.96875 104.09375 -84.421875 104.09375 -71.609375 L 104.09375 0 L 83.625 0 L 77.953125 -14.609375 L 77.1875 -14.609375 C 74.101562 -10.765625 70.957031 -7.625 67.75 -5.1875 C 64.550781 -2.75 60.867188 -0.957031 56.703125 0.1875 C 52.535156 1.34375 47.472656 1.921875 41.515625 1.921875 C 35.171875 1.921875 29.484375 0.707031 24.453125 -1.71875 C 19.429688 -4.15625 15.476562 -7.890625 12.59375 -12.921875 C 9.707031 -17.953125 8.265625 -24.347656 8.265625 -32.109375 C 8.265625 -43.515625 12.269531 -51.921875 20.28125 -57.328125 C 28.289062 -62.742188 40.304688 -65.738281 56.328125 -66.3125 L 74.96875 -66.890625 L 74.96875 -71.609375 C 74.96875 -77.242188 73.492188 -81.375 70.546875 -84 C 67.597656 -86.632812 63.5 -87.953125 58.25 -87.953125 C 53.050781 -87.953125 47.953125 -87.210938 42.953125 -85.734375 C 37.960938 -84.265625 32.96875 -82.40625 27.96875 -80.15625 L 18.265625 -99.953125 C 23.960938 -102.972656 30.351562 -105.347656 37.4375 -107.078125 C 44.519531 -108.804688 51.84375 -109.671875 59.40625 -109.671875 Z M 74.96875 -49.78125 L 63.625 -49.40625 C 54.144531 -49.144531 47.5625 -47.441406 43.875 -44.296875 C 40.1875 -41.160156 38.34375 -37.03125 38.34375 -31.90625 C 38.34375 -27.425781 39.65625 -24.238281 42.28125 -22.34375 C 44.914062 -20.457031 48.347656 -19.515625 52.578125 -19.515625 C 58.859375 -19.515625 64.160156 -21.367188 68.484375 -25.078125 C 72.804688 -28.796875 74.96875 -34.082031 74.96875 -40.9375 Z M 74.96875 -49.78125 "/></g></g></g><g fill="#000000" fill-opacity="1"><g transform="translate(119.380951, 293.610089)"><g><path d="M 44.6875 -107.453125 L 44.6875 0 L 15.375 0 L 15.375 -107.453125 Z M 30.078125 -149.5625 C 34.441406 -149.5625 38.191406 -148.550781 41.328125 -146.53125 C 44.472656 -144.507812 46.046875 -140.742188 46.046875 -135.234375 C 46.046875 -129.785156 44.472656 -126.019531 41.328125 -123.9375 C 38.191406 -121.851562 34.441406 -120.8125 30.078125 -120.8125 C 25.660156 -120.8125 21.894531 -121.851562 18.78125 -123.9375 C 15.675781 -126.019531 14.125 -129.785156 14.125 -135.234375 C 14.125 -140.742188 15.675781 -144.507812 18.78125 -146.53125 C 21.894531 -148.550781 25.660156 -149.5625 30.078125 -149.5625 Z M 30.078125 -149.5625 "/></g></g></g><g fill="#000000" fill-opacity="1"><g transform="translate(179.451796, 293.610089)"><g><path d="M 46.8125 47.28125 C 31.8125 47.28125 20.351562 44.671875 12.4375 39.453125 C 4.53125 34.234375 0.578125 26.914062 0.578125 17.5 C 0.578125 11.019531 2.59375 5.601562 6.625 1.25 C 10.664062 -3.101562 16.59375 -6.210938 24.40625 -8.078125 C 21.394531 -9.359375 18.769531 -11.457031 16.53125 -14.375 C 14.289062 -17.289062 13.171875 -20.378906 13.171875 -23.640625 C 13.171875 -27.742188 14.351562 -31.15625 16.71875 -33.875 C 19.09375 -36.601562 22.523438 -39.28125 27.015625 -41.90625 C 21.367188 -44.34375 16.894531 -48.25 13.59375 -53.625 C 10.300781 -59.007812 8.65625 -65.351562 8.65625 -72.65625 C 8.65625 -80.476562 10.367188 -87.128906 13.796875 -92.609375 C 17.222656 -98.085938 22.21875 -102.265625 28.78125 -105.140625 C 35.351562 -108.023438 43.347656 -109.46875 52.765625 -109.46875 C 54.753906 -109.46875 57.0625 -109.335938 59.6875 -109.078125 C 62.3125 -108.828125 64.726562 -108.539062 66.9375 -108.21875 C 69.15625 -107.90625 70.644531 -107.648438 71.40625 -107.453125 L 108.890625 -107.453125 L 108.890625 -92.5625 L 92.078125 -88.234375 C 93.617188 -85.859375 94.769531 -83.328125 95.53125 -80.640625 C 96.300781 -77.953125 96.6875 -75.101562 96.6875 -72.09375 C 96.6875 -60.550781 92.664062 -51.5625 84.625 -45.125 C 76.582031 -38.6875 65.421875 -35.46875 51.140625 -35.46875 C 47.742188 -35.65625 44.535156 -35.910156 41.515625 -36.234375 C 40.046875 -35.078125 38.925781 -33.859375 38.15625 -32.578125 C 37.382812 -31.296875 37 -29.953125 37 -28.546875 C 37 -27.140625 37.59375 -25.96875 38.78125 -25.03125 C 39.96875 -24.101562 41.757812 -23.398438 44.15625 -22.921875 C 46.5625 -22.441406 49.5625 -22.203125 53.15625 -22.203125 L 71.40625 -22.203125 C 83.195312 -22.203125 92.1875 -19.671875 98.375 -14.609375 C 104.5625 -9.546875 107.65625 -2.113281 107.65625 7.6875 C 107.65625 20.25 102.414062 29.988281 91.9375 36.90625 C 81.457031 43.820312 66.414062 47.28125 46.8125 47.28125 Z M 48.0625 28.15625 C 55.039062 28.15625 61.046875 27.5 66.078125 26.1875 C 71.109375 24.875 74.96875 23.015625 77.65625 20.609375 C 80.351562 18.210938 81.703125 15.347656 81.703125 12.015625 C 81.703125 9.328125 80.914062 7.195312 79.34375 5.625 C 77.769531 4.050781 75.394531 2.941406 72.21875 2.296875 C 69.050781 1.660156 65.003906 1.34375 60.078125 1.34375 L 44.890625 1.34375 C 41.296875 1.34375 38.070312 1.921875 35.21875 3.078125 C 32.375 4.234375 30.117188 5.847656 28.453125 7.921875 C 26.785156 10.003906 25.953125 12.425781 25.953125 15.1875 C 25.953125 19.21875 27.890625 22.382812 31.765625 24.6875 C 35.640625 27 41.070312 28.15625 48.0625 28.15625 Z M 52.765625 -53.34375 C 58.273438 -53.34375 62.3125 -55.039062 64.875 -58.4375 C 67.4375 -61.832031 68.71875 -66.445312 68.71875 -72.28125 C 68.71875 -78.75 67.390625 -83.597656 64.734375 -86.828125 C 62.078125 -90.066406 58.085938 -91.6875 52.765625 -91.6875 C 47.378906 -91.6875 43.34375 -90.066406 40.65625 -86.828125 C 37.96875 -83.597656 36.625 -78.75 36.625 -72.28125 C 36.625 -66.445312 37.953125 -61.832031 40.609375 -58.4375 C 43.265625 -55.039062 47.316406 -53.34375 52.765625 -53.34375 Z M 52.765625 -53.34375 "/></g></g></g><g fill="#000000" fill-opacity="1"><g transform="translate(290.654953, 293.610089)"><g><path d="M 44.6875 -149.5625 L 44.6875 -119.09375 C 44.6875 -113.769531 44.507812 -108.703125 44.15625 -103.890625 C 43.8125 -99.085938 43.539062 -95.695312 43.34375 -93.71875 L 44.890625 -93.71875 C 47.191406 -97.425781 49.925781 -100.429688 53.09375 -102.734375 C 56.269531 -105.046875 59.78125 -106.742188 63.625 -107.828125 C 67.46875 -108.921875 71.601562 -109.46875 76.03125 -109.46875 C 83.78125 -109.46875 90.535156 -108.109375 96.296875 -105.390625 C 102.066406 -102.671875 106.550781 -98.410156 109.75 -92.609375 C 112.957031 -86.804688 114.5625 -79.289062 114.5625 -70.0625 L 114.5625 0 L 85.25 0 L 85.25 -62.765625 C 85.25 -70.453125 83.835938 -76.25 81.015625 -80.15625 C 78.203125 -84.0625 73.847656 -86.015625 67.953125 -86.015625 C 62.054688 -86.015625 57.410156 -84.65625 54.015625 -81.9375 C 50.617188 -79.21875 48.210938 -75.210938 46.796875 -69.921875 C 45.390625 -64.640625 44.6875 -58.1875 44.6875 -50.5625 L 44.6875 0 L 15.375 0 L 15.375 -149.5625 Z M 44.6875 -149.5625 "/></g></g></g><g fill="#000000" fill-opacity="1"><g transform="translate(420.023499, 293.610089)"><g><path d="M 60.65625 -21.4375 C 63.851562 -21.4375 66.972656 -21.753906 70.015625 -22.390625 C 73.054688 -23.035156 76.085938 -23.835938 79.109375 -24.796875 L 79.109375 -2.984375 C 75.960938 -1.566406 72.066406 -0.394531 67.421875 0.53125 C 62.773438 1.457031 57.695312 1.921875 52.1875 1.921875 C 45.78125 1.921875 40.03125 0.878906 34.9375 -1.203125 C 29.84375 -3.285156 25.835938 -6.90625 22.921875 -12.0625 C 20.003906 -17.21875 18.546875 -24.410156 18.546875 -33.640625 L 18.546875 -85.453125 L 4.515625 -85.453125 L 4.515625 -97.84375 L 20.671875 -107.65625 L 29.125 -130.328125 L 47.859375 -130.328125 L 47.859375 -107.453125 L 77.953125 -107.453125 L 77.953125 -85.453125 L 47.859375 -85.453125 L 47.859375 -33.640625 C 47.859375 -29.535156 49.023438 -26.472656 51.359375 -24.453125 C 53.703125 -22.441406 56.800781 -21.4375 60.65625 -21.4375 Z M 60.65625 -21.4375 "/></g></g></g><g fill="#000000" fill-opacity="1"><g transform="translate(505.468255, 293.610089)"><g><path d="M 11.25 -13.75 C 11.25 -19.769531 12.894531 -23.992188 16.1875 -26.421875 C 19.488281 -28.859375 23.476562 -30.078125 28.15625 -30.078125 C 32.707031 -30.078125 36.632812 -28.859375 39.9375 -26.421875 C 43.238281 -23.992188 44.890625 -19.769531 44.890625 -13.75 C 44.890625 -7.976562 43.238281 -3.8125 39.9375 -1.25 C 36.632812 1.3125 32.707031 2.59375 28.15625 2.59375 C 23.476562 2.59375 19.488281 1.3125 16.1875 -1.25 C 12.894531 -3.8125 11.25 -7.976562 11.25 -13.75 Z M 11.25 -13.75 "/></g></g></g><g fill="#000000" fill-opacity="1"><g transform="translate(561.598447, 293.610089)"><g><path d="M 74.78125 -85.453125 L 49.40625 -85.453125 L 49.40625 0 L 20.09375 0 L 20.09375 -85.453125 L 3.9375 -85.453125 L 3.9375 -99.578125 L 20.09375 -107.453125 L 20.09375 -115.34375 C 20.09375 -124.5 21.644531 -131.625 24.75 -136.71875 C 27.851562 -141.8125 32.238281 -145.398438 37.90625 -147.484375 C 43.582031 -149.566406 50.296875 -150.609375 58.046875 -150.609375 C 63.753906 -150.609375 68.945312 -150.144531 73.625 -149.21875 C 78.300781 -148.289062 82.113281 -147.25 85.0625 -146.09375 L 77.5625 -124.5625 C 75.320312 -125.269531 72.882812 -125.910156 70.25 -126.484375 C 67.625 -127.066406 64.613281 -127.359375 61.21875 -127.359375 C 57.125 -127.359375 54.128906 -126.125 52.234375 -123.65625 C 50.347656 -121.1875 49.40625 -118.03125 49.40625 -114.1875 L 49.40625 -107.453125 L 74.78125 -107.453125 Z M 74.78125 -85.453125 "/></g></g></g><g fill="#000000" fill-opacity="1"><g transform="translate(637.816322, 293.610089)"><g><path d="M 114 -107.453125 L 114 0 L 91.5 0 L 87.5625 -13.75 L 86.015625 -13.75 C 83.710938 -10.09375 80.832031 -7.109375 77.375 -4.796875 C 73.914062 -2.492188 70.101562 -0.800781 65.9375 0.28125 C 61.769531 1.375 57.441406 1.921875 52.953125 1.921875 C 45.265625 1.921875 38.566406 0.5625 32.859375 -2.15625 C 27.160156 -4.882812 22.722656 -9.128906 19.546875 -14.890625 C 16.378906 -20.660156 14.796875 -28.160156 14.796875 -37.390625 L 14.796875 -107.453125 L 44.109375 -107.453125 L 44.109375 -44.6875 C 44.109375 -37 45.484375 -31.203125 48.234375 -27.296875 C 50.992188 -23.390625 55.390625 -21.4375 61.421875 -21.4375 C 67.378906 -21.4375 72.054688 -22.796875 75.453125 -25.515625 C 78.847656 -28.242188 81.234375 -32.25 82.609375 -37.53125 C 83.984375 -42.820312 84.671875 -49.28125 84.671875 -56.90625 L 84.671875 -107.453125 Z M 114 -107.453125 "/></g></g></g><g fill="#000000" fill-opacity="1"><g transform="translate(767.184868, 293.610089)"><g><path d="M 76.40625 -109.46875 C 87.875 -109.46875 97.097656 -106.34375 104.078125 -100.09375 C 111.066406 -93.851562 114.5625 -83.84375 114.5625 -70.0625 L 114.5625 0 L 85.25 0 L 85.25 -62.765625 C 85.25 -70.453125 83.851562 -76.25 81.0625 -80.15625 C 78.28125 -84.0625 73.910156 -86.015625 67.953125 -86.015625 C 58.984375 -86.015625 52.863281 -82.972656 49.59375 -76.890625 C 46.320312 -70.804688 44.6875 -62.03125 44.6875 -50.5625 L 44.6875 0 L 15.375 0 L 15.375 -107.453125 L 37.765625 -107.453125 L 41.71875 -93.71875 L 43.34375 -93.71875 C 45.65625 -97.425781 48.523438 -100.429688 51.953125 -102.734375 C 55.378906 -105.046875 59.191406 -106.742188 63.390625 -107.828125 C 67.585938 -108.921875 71.925781 -109.46875 76.40625 -109.46875 Z M 76.40625 -109.46875 "/></g></g></g></svg>